<svg width="78" height="78" viewBox="0 0 78 78" fill="none" xmlns="http://www.w3.org/2000/svg">
<rect width="78" height="78" rx="39" fill="#18161D"/>
<rect x="25.5" y="25.5" width="27" height="27" rx="8" fill="#00AEEF"/>
<path d="M46.95 48C44.8667 48 42.8083 47.5458 40.775 46.6375C38.7417 45.7292 36.8917 44.4417 35.225 42.775C33.5583 41.1083 32.2708 39.2583 31.3625 37.225C30.4542 35.1917 30 33.1333 30 31.05C30 30.75 30.1 30.5 30.3 30.3C30.5 30.1 30.75 30 31.05 30H35.1C35.3333 30 35.5417 30.0792 35.725 30.2375C35.9083 30.3958 36.0167 30.5833 36.05 30.8L36.7 34.3C36.7333 34.5667 36.725 34.7917 36.675 34.975C36.625 35.1583 36.5333 35.3167 36.4 35.45L33.975 37.9C34.3083 38.5167 34.7042 39.1125 35.1625 39.6875C35.6208 40.2625 36.125 40.8167 36.675 41.35C37.1917 41.8667 37.7333 42.3458 38.3 42.7875C38.8667 43.2292 39.4667 43.6333 40.1 44L42.45 41.65C42.6 41.5 42.7958 41.3875 43.0375 41.3125C43.2792 41.2375 43.5167 41.2167 43.75 41.25L47.2 41.95C47.4333 42.0167 47.625 42.1375 47.775 42.3125C47.925 42.4875 48 42.6833 48 42.9V46.95C48 47.25 47.9 47.5 47.7 47.7C47.5 47.9 47.25 48 46.95 48Z" fill="#18161D"/>
</svg>
